<?xml version="1.0" encoding="UTF-8"?> <!-- Generator: Adobe Illustrator 25.2.1, SVG Export Plug-In . SVG Version: 6.00 Build 0) --> <svg xmlns="http://www.w3.org/2000/svg" xmlns:xlink="http://www.w3.org/1999/xlink" version="1.1" id="Layer_1" x="0px" y="0px" viewBox="0 0 360 93" style="enable-background:new 0 0 360 93;" xml:space="preserve" width="360px" height="93px"> <style type="text/css"> .st0{fill:#FFFFFF;} .st1{fill:url(#SVGID_1_);} </style> <g id="Layer_1_1_"> </g> <g id="Layer_2_1_"> </g> <g id="Layer_3"> </g> <g> <g> <g> <path class="st0" d="M4.1,17h12.6l7.5,24.8l8.3-24.9h10.2l8.3,24.9L58.4,17h12.3L56.3,60.1H46l-8.6-24.7l-8.6,24.7H18.5L4.1,17z"></path> <path class="st0" d="M69.3,43.4v-0.1C69.3,33.9,77,26,87.6,26c10.6,0,18.2,7.8,18.2,17.2v0.1c0,9.4-7.7,17.3-18.4,17.3 C76.9,60.6,69.3,52.8,69.3,43.4z M94.5,43.4v-0.1c0-4-2.9-7.5-7-7.5c-4.2,0-6.9,3.4-6.9,7.3v0.1c0,4,2.9,7.5,7,7.5 C91.9,50.8,94.5,47.4,94.5,43.4z"></path> <path class="st0" d="M110.8,26.7h11.6v6.7c1.9-4.5,5-7.5,10.5-7.2v12.2h-1c-6.1,0-9.5,3.5-9.5,11.1v10.3h-11.6V26.7z"></path> <path class="st0" d="M137,15.1h11.6v22.6l9-11.1h13.2L159.2,40l11.8,19.8h-12.8l-6.7-11.3l-3,3.5v7.8H137V15.1z"></path> </g> <linearGradient id="SVGID_1_" gradientUnits="userSpaceOnUse" x1="180.1451" y1="46.5" x2="355.486" y2="46.5"> <stop offset="0" style="stop-color:#F6A200"></stop> <stop offset="1" style="stop-color:#E84427"></stop> </linearGradient> <path class="st1" d="M347.3,4.8H187.1c-4.8,0-8.6,3.9-8.6,8.6v51.3c0,4.8,3.9,8.6,8.6,8.6h13.3v12.2c0,2.7,1.6,3.4,3.5,1.4 l13.2-13.6h130.1c4.8,0,8.6-3.9,8.6-8.6V13.5C355.9,8.7,352,4.8,347.3,4.8z"></path> <path class="st0" d="M270.7,59.8h-11.6v-4.5c-2.1,2.8-5.2,5.3-9.9,5.3c-7,0-11.3-4.7-11.3-12.2V26.7h11.6v17.9 c0,3.6,1.9,5.6,4.7,5.6c2.8,0,4.8-2,4.8-5.6V26.7h11.6V59.8z"></path> <polygon class="st0" points="306.5,34.4 291.2,50.6 306.5,50.6 306.5,59.8 275.8,59.8 275.8,52.2 291.1,36 276.3,36 276.3,26.7 306.5,26.7 "></polygon> <polygon class="st0" points="341,34.4 325.6,50.6 341,50.6 341,59.8 310.3,59.8 310.3,52.2 325.6,36 310.8,36 310.8,26.7 341,26.7 "></polygon> <path class="st0" d="M224.9,37.4c3.8-1.7,6.6-4.6,6.6-9.5v-0.1c0-2.9-1-5.2-2.8-6.9c-2.5-2.5-6.3-3.9-11.7-3.9h-22v42.8h22.1 c10.2,0,16.2-4.5,16.2-11.8v-0.1C233.4,42.1,230.1,39.1,224.9,37.4z M206.6,26.5h7.7c3.5,0,5.4,1.3,5.4,3.7v0.1 c0,2.5-2,3.7-5.6,3.7h-7.5V26.5z M221.5,46.4c0,2.5-2.1,3.9-5.7,3.9h-9.2v-7.9h9.1c4,0,5.8,1.5,5.8,3.9V46.4z"></path> </g> </g> </svg> 