<svg width="122" height="44" viewBox="0 0 122 44" fill="none" xmlns="http://www.w3.org/2000/svg">
<path d="M106.011 8.12094V0.157661H83.7276L80.059 26.751L76.4346 0.157661H68.3986L69.2966 7.25878C68.3702 5.43878 65.0817 0.157661 57.8407 0.157661C57.7926 0.154541 49.795 0.157661 49.795 0.157661L49.7617 38.9195L43.9058 0.157661L33.3799 0.154541L27.3209 40.316L27.3243 0.157661H17.2487L13.6178 22.7173L10.0808 0.157661H0.00372314V43.82H7.9397V22.7745L11.5501 43.82H15.7683L19.3277 22.7745V43.82H34.6256L35.5507 37.1042H41.7095L42.6346 43.82L57.6551 43.8296H57.666V43.82H57.6847V29.6489L59.524 29.3827L63.3358 43.8296H71.1054L71.1023 43.82H71.1244L66.1225 26.8914C68.6552 25.0248 71.518 20.2928 70.7562 15.7639V15.7623C70.7656 15.8211 75.4789 43.8491 75.4789 43.8491L84.7177 43.8205L91.0303 4.24772V43.8205H106.011V35.9688H98.9012V25.9569H106.011V17.9853H98.9012V8.12094H106.011ZM36.4854 30.1822L38.666 11.5137L40.9254 30.1822H36.4854ZM59.5494 21.5619C58.94 21.8539 58.3056 22 57.6847 22.0016V7.95896C57.6943 7.95896 57.7089 7.9574 57.7245 7.9574C58.3433 7.95272 62.9773 8.14304 62.9773 14.9017C62.9773 18.4372 61.4017 20.667 59.5494 21.5619ZM121.998 35.9615V43.8104H107.382V0.151421H115.253V35.9615H121.998Z" fill="white"/>
</svg>
